<?xml version="1.0" encoding="utf-8" standalone="no"?>
<!DOCTYPE svg PUBLIC "-//W3C//DTD SVG 1.1//EN"
  "http://www.w3.org/Graphics/SVG/1.1/DTD/svg11.dtd">
<svg xmlns:xlink="http://www.w3.org/1999/xlink" width="246.96pt" height="174.627091pt" viewBox="0 0 246.96 174.627091" xmlns="http://www.w3.org/2000/svg" version="1.1">
 <metadata>
  <rdf:RDF xmlns:dc="http://purl.org/dc/elements/1.1/" xmlns:cc="http://creativecommons.org/ns#" xmlns:rdf="http://www.w3.org/1999/02/22-rdf-syntax-ns#">
   <cc:Work>
    <dc:type rdf:resource="http://purl.org/dc/dcmitype/StillImage"/>
    <dc:date>2023-10-12T12:27:52.972994</dc:date>
    <dc:format>image/svg+xml</dc:format>
    <dc:creator>
     <cc:Agent>
      <dc:title>Matplotlib v3.8.0, https://matplotlib.org/</dc:title>
     </cc:Agent>
    </dc:creator>
   </cc:Work>
  </rdf:RDF>
 </metadata>
 <defs>
  <style type="text/css">*{stroke-linejoin: round; stroke-linecap: butt}</style>
 </defs>
 <g id="figure_1">
  <g id="patch_1">
   <path d="M 0 174.627091 
L 246.96 174.627091 
L 246.96 0 
L 0 0 
z
" style="fill: #ffffff"/>
  </g>
  <g id="axes_1">
   <g id="patch_2">
    <path d="M 45.92 138.427091 
L 229.815 138.427091 
L 229.815 13.68 
L 45.92 13.68 
z
" style="fill: #ffffff"/>
   </g>
   <g id="matplotlib.axis_1">
    <g id="xtick_1">
     <g id="line2d_1">
      <defs>
       <path id="m36837721dd" d="M 0 0 
L 0 3.5 
" style="stroke: #000000; stroke-width: 0.8"/>
      </defs>
      <g>
       <use xlink:href="#m36837721dd" x="45.92" y="138.427091" style="stroke: #000000; stroke-width: 0.8"/>
      </g>
     </g>
     <g id="text_1">
      <text style="font: 8px 'DejaVu Sans', 'Bitstream Vera Sans', 'Computer Modern Sans Serif', 'Lucida Grande', 'Verdana', 'Geneva', 'Lucid', 'Arial', 'Helvetica', 'Avant Garde', sans-serif; text-anchor: middle" x="45.92" y="151.505841" transform="rotate(-0 45.92 151.505841)">−1.0</text>
     </g>
    </g>
    <g id="xtick_2">
     <g id="line2d_2">
      <g>
       <use xlink:href="#m36837721dd" x="91.89375" y="138.427091" style="stroke: #000000; stroke-width: 0.8"/>
      </g>
     </g>
     <g id="text_2">
      <text style="font: 8px 'DejaVu Sans', 'Bitstream Vera Sans', 'Computer Modern Sans Serif', 'Lucida Grande', 'Verdana', 'Geneva', 'Lucid', 'Arial', 'Helvetica', 'Avant Garde', sans-serif; text-anchor: middle" x="91.89375" y="151.505841" transform="rotate(-0 91.89375 151.505841)">−0.5</text>
     </g>
    </g>
    <g id="xtick_3">
     <g id="line2d_3">
      <g>
       <use xlink:href="#m36837721dd" x="137.8675" y="138.427091" style="stroke: #000000; stroke-width: 0.8"/>
      </g>
     </g>
     <g id="text_3">
      <text style="font: 8px 'DejaVu Sans', 'Bitstream Vera Sans', 'Computer Modern Sans Serif', 'Lucida Grande', 'Verdana', 'Geneva', 'Lucid', 'Arial', 'Helvetica', 'Avant Garde', sans-serif; text-anchor: middle" x="137.8675" y="151.505841" transform="rotate(-0 137.8675 151.505841)">0.0</text>
     </g>
    </g>
    <g id="xtick_4">
     <g id="line2d_4">
      <g>
       <use xlink:href="#m36837721dd" x="183.84125" y="138.427091" style="stroke: #000000; stroke-width: 0.8"/>
      </g>
     </g>
     <g id="text_4">
      <text style="font: 8px 'DejaVu Sans', 'Bitstream Vera Sans', 'Computer Modern Sans Serif', 'Lucida Grande', 'Verdana', 'Geneva', 'Lucid', 'Arial', 'Helvetica', 'Avant Garde', sans-serif; text-anchor: middle" x="183.84125" y="151.505841" transform="rotate(-0 183.84125 151.505841)">0.5</text>
     </g>
    </g>
    <g id="xtick_5">
     <g id="line2d_5">
      <g>
       <use xlink:href="#m36837721dd" x="229.815" y="138.427091" style="stroke: #000000; stroke-width: 0.8"/>
      </g>
     </g>
     <g id="text_5">
      <text style="font: 8px 'DejaVu Sans', 'Bitstream Vera Sans', 'Computer Modern Sans Serif', 'Lucida Grande', 'Verdana', 'Geneva', 'Lucid', 'Arial', 'Helvetica', 'Avant Garde', sans-serif; text-anchor: middle" x="229.815" y="151.505841" transform="rotate(-0 229.815 151.505841)">1.0</text>
     </g>
    </g>
    <g id="text_6">
     <text style="font: 8px 'DejaVu Sans', 'Bitstream Vera Sans', 'Computer Modern Sans Serif', 'Lucida Grande', 'Verdana', 'Geneva', 'Lucid', 'Arial', 'Helvetica', 'Avant Garde', sans-serif; text-anchor: middle" x="137.8675" y="163.248341" transform="rotate(-0 137.8675 163.248341)">ground azimuth [m]</text>
    </g>
   </g>
   <g id="matplotlib.axis_2">
    <g id="ytick_1">
     <g id="line2d_6">
      <defs>
       <path id="md058b963b1" d="M 0 0 
L -3.5 0 
" style="stroke: #000000; stroke-width: 0.8"/>
      </defs>
      <g>
       <use xlink:href="#md058b963b1" x="45.92" y="125.061331" style="stroke: #000000; stroke-width: 0.8"/>
      </g>
     </g>
     <g id="text_7">
      <text style="font: 8px 'DejaVu Sans', 'Bitstream Vera Sans', 'Computer Modern Sans Serif', 'Lucida Grande', 'Verdana', 'Geneva', 'Lucid', 'Arial', 'Helvetica', 'Avant Garde', sans-serif; text-anchor: end" x="38.92" y="128.100706" transform="rotate(-0 38.92 128.100706)">−25</text>
     </g>
    </g>
    <g id="ytick_2">
     <g id="line2d_7">
      <g>
       <use xlink:href="#md058b963b1" x="45.92" y="102.785065" style="stroke: #000000; stroke-width: 0.8"/>
      </g>
     </g>
     <g id="text_8">
      <text style="font: 8px 'DejaVu Sans', 'Bitstream Vera Sans', 'Computer Modern Sans Serif', 'Lucida Grande', 'Verdana', 'Geneva', 'Lucid', 'Arial', 'Helvetica', 'Avant Garde', sans-serif; text-anchor: end" x="38.92" y="105.82444" transform="rotate(-0 38.92 105.82444)">−20</text>
     </g>
    </g>
    <g id="ytick_3">
     <g id="line2d_8">
      <g>
       <use xlink:href="#md058b963b1" x="45.92" y="80.508799" style="stroke: #000000; stroke-width: 0.8"/>
      </g>
     </g>
     <g id="text_9">
      <text style="font: 8px 'DejaVu Sans', 'Bitstream Vera Sans', 'Computer Modern Sans Serif', 'Lucida Grande', 'Verdana', 'Geneva', 'Lucid', 'Arial', 'Helvetica', 'Avant Garde', sans-serif; text-anchor: end" x="38.92" y="83.548174" transform="rotate(-0 38.92 83.548174)">−15</text>
     </g>
    </g>
    <g id="ytick_4">
     <g id="line2d_9">
      <g>
       <use xlink:href="#md058b963b1" x="45.92" y="58.232532" style="stroke: #000000; stroke-width: 0.8"/>
      </g>
     </g>
     <g id="text_10">
      <text style="font: 8px 'DejaVu Sans', 'Bitstream Vera Sans', 'Computer Modern Sans Serif', 'Lucida Grande', 'Verdana', 'Geneva', 'Lucid', 'Arial', 'Helvetica', 'Avant Garde', sans-serif; text-anchor: end" x="38.92" y="61.271907" transform="rotate(-0 38.92 61.271907)">−10</text>
     </g>
    </g>
    <g id="ytick_5">
     <g id="line2d_10">
      <g>
       <use xlink:href="#md058b963b1" x="45.92" y="35.956266" style="stroke: #000000; stroke-width: 0.8"/>
      </g>
     </g>
     <g id="text_11">
      <text style="font: 8px 'DejaVu Sans', 'Bitstream Vera Sans', 'Computer Modern Sans Serif', 'Lucida Grande', 'Verdana', 'Geneva', 'Lucid', 'Arial', 'Helvetica', 'Avant Garde', sans-serif; text-anchor: end" x="38.92" y="38.995641" transform="rotate(-0 38.92 38.995641)">−5</text>
     </g>
    </g>
    <g id="ytick_6">
     <g id="line2d_11">
      <g>
       <use xlink:href="#md058b963b1" x="45.92" y="13.68" style="stroke: #000000; stroke-width: 0.8"/>
      </g>
     </g>
     <g id="text_12">
      <text style="font: 8px 'DejaVu Sans', 'Bitstream Vera Sans', 'Computer Modern Sans Serif', 'Lucida Grande', 'Verdana', 'Geneva', 'Lucid', 'Arial', 'Helvetica', 'Avant Garde', sans-serif; text-anchor: end" x="38.92" y="16.719375" transform="rotate(-0 38.92 16.719375)">0</text>
     </g>
    </g>
    <g id="text_13">
     <text style="font: 8px 'DejaVu Sans', 'Bitstream Vera Sans', 'Computer Modern Sans Serif', 'Lucida Grande', 'Verdana', 'Geneva', 'Lucid', 'Arial', 'Helvetica', 'Avant Garde', sans-serif; text-anchor: middle" x="16.3725" y="76.053545" transform="rotate(-90 16.3725 76.053545)">normalized amplitude [dB]</text>
    </g>
   </g>
   <g id="line2d_12">
    <path d="M 45.914895 148.744779 
L 46.551631 156.513471 
L 47.172448 166.945676 
L 47.566181 175.627091 
M 49.871786 175.627091 
L 50.547148 160.907051 
L 51.263476 149.91708 
L 52.01164 141.736544 
L 52.743886 136.01183 
L 53.444296 132.160934 
L 54.065113 129.864167 
L 54.606338 128.63384 
L 55.036135 128.143585 
L 55.370421 128.055045 
L 55.688789 128.209424 
L 56.038994 128.652479 
L 56.468791 129.600336 
L 56.962261 131.27047 
L 57.519405 133.978636 
L 58.140222 138.187764 
L 58.776958 144.12004 
L 59.413694 152.235897 
L 60.034511 163.157498 
L 60.557519 175.627091 
M 62.397145 175.627091 
L 63.106761 158.504507 
L 63.823089 146.433646 
L 64.555335 137.634521 
L 65.303499 131.174403 
L 66.019827 126.790534 
L 66.672481 124.056925 
L 67.229625 122.567083 
L 67.691259 121.88579 
L 68.057382 121.693472 
L 68.37575 121.776193 
L 68.710036 122.116632 
L 69.107996 122.870229 
L 69.585548 124.300194 
L 70.126773 126.675475 
L 70.731672 130.415051 
L 71.368408 135.857562 
L 72.005143 143.323939 
L 72.625961 153.348019 
L 73.23086 166.899708 
L 73.544124 175.627091 
M 74.897136 175.627091 
L 75.714129 154.067814 
L 76.414539 141.340665 
L 77.146785 131.837143 
L 77.894949 124.834371 
L 78.627196 119.931357 
L 79.311686 116.754383 
L 79.900667 114.970436 
L 80.394137 114.104436 
L 80.776179 113.816121 
L 81.094547 113.829596 
L 81.412915 114.076306 
L 81.794956 114.687893 
L 82.240671 115.85602 
L 82.765978 117.910079 
L 83.354959 121.194583 
L 83.975776 125.996593 
L 84.612512 132.745868 
L 85.249248 142.026813 
L 85.870065 154.551688 
L 86.690749 175.627091 
M 87.300003 175.627091 
L 87.70068 164.888579 
L 88.544355 143.695437 
L 89.260683 131.172604 
L 90.008847 121.781942 
L 90.77293 114.856635 
L 91.505177 110.105993 
L 92.189667 107.027387 
L 92.778648 105.308781 
L 93.2562 104.508093 
L 93.638241 104.241205 
L 93.956609 104.27288 
L 94.274977 104.539196 
L 94.657019 105.17777 
L 95.118652 106.437879 
L 95.643959 108.579105 
L 96.23294 112.001187 
L 96.853757 117.02525 
L 97.474574 123.943449 
L 98.079473 133.23763 
L 98.668454 145.857408 
L 99.766823 172.686802 
L 99.814578 172.533548 
L 99.941926 171.007679 
L 100.212538 163.977997 
L 101.294989 133.355474 
L 101.995398 120.490174 
L 102.743563 110.640838 
L 103.507646 103.350931 
L 104.25581 98.200986 
L 104.95622 94.818257 
L 105.561119 92.87876 
L 106.070507 91.90608 
L 106.468467 91.557396 
L 106.786835 91.539323 
L 107.105203 91.757687 
L 107.471326 92.310878 
L 107.901123 93.395129 
L 108.410511 95.34263 
L 108.967655 98.41078 
L 109.572554 103.087736 
L 110.177453 109.59173 
L 110.766434 118.406067 
L 111.323577 130.158056 
L 111.89664 147.351027 
L 112.437865 162.331429 
L 112.48562 162.503412 
L 112.533375 162.360499 
L 112.644804 160.84891 
L 112.899498 153.105249 
L 113.870521 121.379207 
L 114.555011 106.957999 
L 115.303176 95.705707 
L 116.083177 87.138638 
L 116.879097 80.721889 
L 117.64318 76.273927 
L 118.327671 73.501035 
L 118.916652 71.957746 
L 119.394203 71.263032 
L 119.760326 71.070435 
L 120.078694 71.149147 
L 120.412981 71.487847 
L 120.81094 72.252354 
L 121.272574 73.673293 
L 121.797881 76.079348 
L 122.370943 79.84747 
L 122.959924 85.301191 
L 123.548904 92.927418 
L 124.137885 103.601605 
L 125.268091 126.407417 
L 125.299928 126.354461 
L 125.395438 125.688484 
L 125.586459 122.324991 
L 126.048092 108.812075 
L 126.907685 85.597721 
L 127.703605 70.173279 
L 128.563199 57.680055 
L 129.502384 47.159682 
L 130.505243 38.370969 
L 131.52402 31.326005 
L 132.542797 25.759847 
L 133.529738 21.533663 
L 134.468923 18.437228 
L 135.328516 16.318281 
L 136.108517 14.947699 
L 136.793008 14.159191 
L 137.397907 13.776533 
L 137.939133 13.680904 
L 138.46444 13.810207 
L 139.021584 14.187447 
L 139.626483 14.880277 
L 140.310974 16.028015 
L 141.059138 17.740678 
L 141.886895 20.225013 
L 142.762406 23.582678 
L 143.685673 28.032314 
L 144.640777 33.776538 
L 145.59588 40.935985 
L 146.519147 49.591593 
L 147.394659 59.962792 
L 148.190579 72.066434 
L 148.922825 86.686833 
L 149.623234 105.390539 
L 150.403236 125.851381 
L 150.514664 126.407417 
L 150.562419 126.328824 
L 150.673848 125.45221 
L 150.912624 121.127977 
L 152.297524 91.973986 
L 152.966097 83.801285 
L 153.63467 78.223663 
L 154.271405 74.655298 
L 154.844468 72.584672 
L 155.337938 71.534241 
L 155.735898 71.130742 
L 156.070184 71.078571 
L 156.388552 71.263032 
L 156.770593 71.778989 
L 157.232227 72.827409 
L 157.773452 74.656277 
L 158.394269 77.589499 
L 159.07876 81.964133 
L 159.795088 88.052324 
L 160.511416 96.115156 
L 161.195907 106.399256 
L 161.832643 119.423982 
L 162.421623 136.232394 
L 163.297135 162.503412 
L 163.34489 162.331429 
L 163.472237 160.463776 
L 163.774687 151.224185 
L 164.554688 127.837457 
L 165.191424 115.467669 
L 165.859996 106.59172 
L 166.544487 100.31028 
L 167.21306 96.112436 
L 167.817959 93.597813 
L 168.343266 92.249585 
L 168.773063 91.666973 
L 169.123267 91.51849 
L 169.441635 91.629751 
L 169.79184 92.019026 
L 170.205718 92.839352 
L 170.715107 94.395167 
L 171.304087 96.984627 
L 171.956741 100.946878 
L 172.641232 106.552932 
L 173.341642 114.241279 
L 174.010214 124.121382 
L 174.64695 136.966934 
L 175.267767 154.224826 
L 175.93634 172.299619 
L 176.015932 172.686802 
L 176.063687 172.600016 
L 176.175116 171.507361 
L 176.413892 166.066638 
L 177.62369 134.705932 
L 178.292262 124.151597 
L 178.992672 116.432271 
L 179.693081 111.059451 
L 180.345735 107.640456 
L 180.934716 105.63239 
L 181.428186 104.643124 
L 181.826146 104.27288 
L 182.144514 104.241205 
L 182.462882 104.440606 
L 182.829005 104.954595 
L 183.27472 105.996154 
L 183.800027 107.830745 
L 184.404926 110.817233 
L 185.05758 115.225531 
L 185.742071 121.445819 
L 186.426562 129.795141 
L 187.095134 140.83884 
L 187.73187 155.191457 
L 188.482752 175.627091 
M 189.092006 175.627091 
L 189.562486 163.443934 
L 190.326568 145.76066 
L 191.026978 134.581229 
L 191.743306 126.579902 
L 192.443715 121.090718 
L 193.112288 117.478783 
L 193.717186 115.336886 
L 194.226575 114.264724 
L 194.640453 113.851636 
L 194.97474 113.807066 
L 195.293108 114.001258 
L 195.659231 114.509877 
L 196.104946 115.547292 
L 196.630253 117.383067 
L 197.219233 120.292193 
L 197.871887 124.709078 
L 198.54046 130.810322 
L 199.209033 138.99882 
L 199.861687 149.837567 
L 200.482504 163.997439 
L 200.885619 175.627091 
M 202.238631 175.627091 
L 203.013529 156.170332 
L 203.69802 144.435893 
L 204.398429 136.016964 
L 205.114757 129.961392 
L 205.799248 125.963579 
L 206.420065 123.559093 
L 206.945372 122.315941 
L 207.375169 121.797346 
L 207.709455 121.692071 
L 208.027823 121.830308 
L 208.378028 122.250661 
L 208.807824 123.155751 
L 209.317213 124.803843 
L 209.890275 127.457754 
L 210.527011 131.524522 
L 211.195583 137.313413 
L 211.864156 145.113989 
L 212.51681 155.443354 
L 213.137628 168.939227 
L 213.38561 175.627091 
M 215.225236 175.627091 
L 215.923347 159.703907 
L 216.607838 148.887449 
L 217.324165 140.922301 
L 218.024575 135.436494 
L 218.693147 131.808937 
L 219.298046 129.644273 
L 219.807435 128.550314 
L 220.221313 128.119564 
L 220.555599 128.061667 
L 220.873967 128.244591 
L 221.24009 128.742747 
L 221.685805 129.772422 
L 222.211112 131.608896 
L 222.800093 134.536931 
L 223.436829 138.882228 
L 224.105401 145.054333 
L 224.773974 153.401613 
L 225.41071 164.237879 
L 225.910969 175.627091 
M 228.216574 175.627091 
L 228.88092 161.976033 
L 229.581329 151.940776 
L 229.820105 149.24686 
L 229.820105 149.24686 
" clip-path="url(#pe054fa8ad6)" style="fill: none; stroke: #1f77b4; stroke-width: 1.5; stroke-linecap: square"/>
   </g>
   <g id="line2d_13">
    <path d="M 45.914895 152.404175 
L 46.519794 160.51833 
L 47.092856 171.371576 
L 47.268126 175.627091 
M 50.040875 175.627091 
L 50.642658 162.012059 
L 51.327149 151.41171 
L 52.043477 143.587414 
L 52.759805 138.018363 
L 53.444296 134.296389 
L 54.065113 132.049866 
L 54.59042 130.904498 
L 55.004298 130.46599 
L 55.338585 130.405651 
L 55.641034 130.57823 
L 55.991239 131.052553 
L 56.421035 132.051943 
L 56.914506 133.803978 
L 57.471649 136.645992 
L 58.076548 140.954553 
L 58.697366 147.060642 
L 59.302265 155.302436 
L 59.859409 166.013518 
L 60.221036 175.627091 
M 62.58503 175.627091 
L 63.154516 160.563716 
L 63.80717 148.926097 
L 64.523498 139.978479 
L 65.255744 133.484296 
L 65.972072 129.014042 
L 66.624726 126.249675 
L 67.18187 124.757651 
L 67.643503 124.088302 
L 67.993708 123.914944 
L 68.296158 123.997242 
L 68.630444 124.341905 
L 69.028404 125.109961 
L 69.505956 126.573556 
L 70.047181 129.015942 
L 70.636162 132.768014 
L 71.256979 138.255266 
L 71.861878 145.648759 
L 72.43494 155.451321 
L 72.944329 168.033523 
L 73.170718 175.627091 
M 75.132032 175.627091 
L 75.650456 159.170085 
L 76.271273 146.140387 
L 76.971682 135.962858 
L 77.703929 128.418784 
L 78.436175 123.057624 
L 79.120666 119.574383 
L 79.725565 117.542023 
L 80.234953 116.526989 
L 80.632913 116.160351 
L 80.951281 116.134237 
L 81.269649 116.347969 
L 81.635772 116.89748 
L 82.065569 117.975656 
L 82.574957 119.906348 
L 83.148019 123.034278 
L 83.752918 127.657302 
L 84.373736 134.24469 
L 84.962716 142.977086 
L 85.503942 154.44784 
L 85.965575 169.054983 
L 86.117789 175.627091 
M 87.681292 175.627091 
L 88.162314 156.8471 
L 88.751294 142.172858 
L 89.419867 130.808391 
L 90.152113 122.015668 
L 90.900278 115.608072 
L 91.616605 111.274075 
L 92.269259 108.582609 
L 92.826403 107.130221 
L 93.272118 106.4989 
L 93.622323 106.328421 
L 93.924772 106.41304 
L 94.259059 106.761522 
L 94.657019 107.538117 
L 95.118652 108.96249 
L 95.659877 111.424012 
L 96.248858 115.236966 
L 96.853757 120.699071 
L 97.458656 128.315215 
L 98.0158 138.239903 
L 98.50927 151.058382 
L 98.923148 167.657859 
L 99.062876 175.627091 
M 100.232334 175.627091 
L 100.658253 154.018691 
L 101.199479 137.278024 
L 101.836214 124.173103 
L 102.552542 113.864305 
L 103.300707 106.150848 
L 104.048871 100.606575 
L 104.749281 96.950086 
L 105.370098 94.772742 
L 105.895405 93.650799 
L 106.309283 93.218351 
L 106.64357 93.159834 
L 106.946019 93.334832 
L 107.296224 93.816633 
L 107.710102 94.792259 
L 108.203572 96.580006 
L 108.744798 99.428427 
L 109.333778 103.805892 
L 109.922759 109.926641 
L 110.495821 118.294797 
L 111.021128 129.340634 
L 111.482761 144.005492 
L 111.848884 162.924442 
L 112.006504 175.627091 
M 112.784673 175.627091 
L 113.138274 149.925969 
L 113.615826 130.202248 
L 114.204807 114.652345 
L 114.889298 102.239084 
L 115.637462 92.522353 
L 116.417464 85.131047 
L 117.181547 79.85752 
L 117.897874 76.34364 
L 118.53461 74.249071 
L 119.059917 73.21316 
L 119.473795 72.835612 
L 119.792163 72.813993 
L 120.110531 73.034702 
L 120.476654 73.60365 
L 120.906451 74.73545 
L 121.399921 76.727744 
L 121.941146 79.921537 
L 122.49829 84.609504 
L 123.055434 91.264449 
L 123.580741 100.301708 
L 124.058293 112.568245 
L 124.456253 128.77799 
L 124.774621 151.653361 
L 124.949171 175.627091 
M 125.33794 175.627091 
L 125.618296 139.895909 
L 126.032174 114.418824 
L 126.573399 94.649899 
L 127.226053 78.684971 
L 128.006055 64.969978 
L 128.881566 53.416436 
L 129.83667 43.679063 
L 130.839529 35.651714 
L 131.858306 29.203933 
L 132.877083 24.121079 
L 133.848105 20.344181 
L 134.771372 17.603971 
L 135.615047 15.763388 
L 136.363212 14.630547 
L 137.015866 14.011866 
L 137.604846 13.743189 
L 138.146072 13.736434 
L 138.687297 13.959584 
L 139.260359 14.448257 
L 139.897095 15.30058 
L 140.613423 16.65957 
L 141.393424 18.642607 
L 142.237099 21.417568 
L 143.144448 25.203121 
L 144.083633 30.114359 
L 145.038737 36.337398 
L 145.977922 43.966825 
L 146.869352 53.050412 
L 147.697108 63.782118 
L 148.445273 76.448709 
L 149.082009 91.054091 
L 149.607316 108.25451 
L 150.021194 129.241784 
L 150.323644 156.271102 
L 150.444815 175.627091 
M 150.833584 175.627091 
L 151.119563 141.874848 
L 151.517523 119.987346 
L 152.010993 104.594644 
L 152.584056 93.404922 
L 153.204873 85.42243 
L 153.841609 79.921537 
L 154.462426 76.351731 
L 155.035488 74.254846 
L 155.528958 73.216077 
L 155.926918 72.838428 
L 156.245286 72.812338 
L 156.563654 73.021855 
L 156.945696 73.576914 
L 157.407329 74.685658 
L 157.948554 76.604941 
L 158.569372 79.673645 
L 159.253863 84.252643 
L 159.970191 90.655282 
L 160.6706 99.009267 
L 161.323254 109.512791 
L 161.912235 122.695429 
L 162.405705 138.847944 
L 162.803665 159.512019 
L 162.998083 175.627091 
M 163.776251 175.627091 
L 164.14081 151.029281 
L 164.618362 133.226097 
L 165.175505 120.304773 
L 165.812241 110.519116 
L 166.480814 103.52956 
L 167.149386 98.758395 
L 167.770204 95.802815 
L 168.327348 94.138293 
L 168.788981 93.382649 
L 169.155104 93.15667 
L 169.457554 93.209646 
L 169.79184 93.515816 
L 170.1898 94.217904 
L 170.667352 95.551674 
L 171.224495 97.81514 
L 171.845313 101.317049 
L 172.513885 106.430257 
L 173.198376 113.481603 
L 173.85103 122.581012 
L 174.455929 134.236447 
L 174.981236 148.817368 
L 175.411033 167.161447 
L 175.550421 175.627091 
M 176.719879 175.627091 
L 177.146138 155.37721 
L 177.671445 140.347407 
L 178.276344 129.036569 
L 178.944917 120.531166 
L 179.629408 114.52806 
L 180.282062 110.604712 
L 180.886961 108.201865 
L 181.412268 106.938583 
L 181.842064 106.423512 
L 182.176351 106.329946 
L 182.4788 106.47157 
L 182.829005 106.902336 
L 183.258801 107.825622 
L 183.76819 109.501004 
L 184.357171 112.279481 
L 184.993906 116.429077 
L 185.662479 122.339479 
L 186.331052 130.359532 
L 186.951869 140.590007 
L 187.509013 153.572331 
L 187.986565 170.226967 
L 188.101463 175.627091 
M 189.664966 175.627091 
L 190.135548 158.344146 
L 190.70861 145.005984 
L 191.345346 135.053513 
L 192.029837 127.657302 
L 192.714328 122.533118 
L 193.366982 119.222674 
L 193.940044 117.35657 
L 194.417596 116.459586 
L 194.799637 116.144752 
L 195.118005 116.147037 
L 195.436373 116.386924 
L 195.818415 116.98909 
L 196.280048 118.183465 
L 196.821273 120.266846 
L 197.426172 123.552423 
L 198.078827 128.418784 
L 198.747399 135.200161 
L 199.384135 144.007439 
L 199.973115 155.324135 
L 200.482504 169.444193 
L 200.650723 175.627091 
M 202.612037 175.627091 
L 203.124958 160.363905 
L 203.729857 148.547007 
L 204.398429 139.619183 
L 205.08292 133.25171 
L 205.767411 128.847313 
L 206.388228 126.176838 
L 206.929454 124.723102 
L 207.375169 124.082261 
L 207.725373 123.914338 
L 208.027823 124.001957 
L 208.362109 124.348499 
L 208.760069 125.106258 
L 209.237621 126.526154 
L 209.794765 128.932648 
L 210.415582 132.678742 
L 211.068236 138.064608 
L 211.72089 145.381871 
L 212.341708 154.920329 
L 212.91477 167.346311 
L 213.197726 175.627091 
M 215.56172 175.627091 
L 216.130286 161.576014 
L 216.767021 151.055671 
L 217.451512 143.224255 
L 218.151922 137.646026 
L 218.820494 134.010056 
L 219.409475 131.91745 
L 219.918864 130.845502 
L 220.316823 130.451857 
L 220.635191 130.407999 
L 220.953559 130.602279 
L 221.319682 131.120984 
L 221.765397 132.187496 
L 222.290704 134.087377 
L 222.879685 137.121368 
L 223.516421 141.645925 
L 224.169075 147.958865 
L 224.805811 156.355458 
L 225.394791 167.122553 
L 225.74188 175.627091 
M 228.51463 175.627091 
L 229.103777 163.153563 
L 229.77235 153.516307 
L 229.820105 152.953276 
L 229.820105 152.953276 
" clip-path="url(#pe054fa8ad6)" style="fill: none; stroke-dasharray: 5.55,2.4; stroke-dashoffset: 0; stroke: #ff7f0e; stroke-width: 1.5"/>
   </g>
   <g id="patch_3">
    <path d="M 45.92 138.427091 
L 45.92 13.68 
" style="fill: none; stroke: #000000; stroke-width: 0.8; stroke-linejoin: miter; stroke-linecap: square"/>
   </g>
   <g id="patch_4">
    <path d="M 229.815 138.427091 
L 229.815 13.68 
" style="fill: none; stroke: #000000; stroke-width: 0.8; stroke-linejoin: miter; stroke-linecap: square"/>
   </g>
   <g id="patch_5">
    <path d="M 45.92 138.427091 
L 229.815 138.427091 
" style="fill: none; stroke: #000000; stroke-width: 0.8; stroke-linejoin: miter; stroke-linecap: square"/>
   </g>
   <g id="patch_6">
    <path d="M 45.92 13.68 
L 229.815 13.68 
" style="fill: none; stroke: #000000; stroke-width: 0.8; stroke-linejoin: miter; stroke-linecap: square"/>
   </g>
   <g id="legend_1">
    <g id="patch_7">
     <path d="M 127.0725 43.565 
L 224.215 43.565 
Q 225.815 43.565 225.815 41.965 
L 225.815 19.28 
Q 225.815 17.68 224.215 17.68 
L 127.0725 17.68 
Q 125.4725 17.68 125.4725 19.28 
L 125.4725 41.965 
Q 125.4725 43.565 127.0725 43.565 
z
" style="fill: #ffffff; opacity: 0.8; stroke: #cccccc; stroke-linejoin: miter"/>
    </g>
    <g id="line2d_14">
     <path d="M 128.6725 24.15875 
L 136.6725 24.15875 
L 144.6725 24.15875 
" style="fill: none; stroke: #1f77b4; stroke-width: 1.5; stroke-linecap: square"/>
    </g>
    <g id="text_14">
     <text style="font: 8px 'DejaVu Sans', 'Bitstream Vera Sans', 'Computer Modern Sans Serif', 'Lucida Grande', 'Verdana', 'Geneva', 'Lucid', 'Arial', 'Helvetica', 'Avant Garde', sans-serif; text-anchor: start" x="151.0725" y="26.95875" transform="rotate(-0 151.0725 26.95875)">distorted antenna</text>
    </g>
    <g id="line2d_15">
     <path d="M 128.6725 35.90125 
L 136.6725 35.90125 
L 144.6725 35.90125 
" style="fill: none; stroke-dasharray: 5.55,2.4; stroke-dashoffset: 0; stroke: #ff7f0e; stroke-width: 1.5"/>
    </g>
    <g id="text_15">
     <text style="font: 8px 'DejaVu Sans', 'Bitstream Vera Sans', 'Computer Modern Sans Serif', 'Lucida Grande', 'Verdana', 'Geneva', 'Lucid', 'Arial', 'Helvetica', 'Avant Garde', sans-serif; text-anchor: start" x="151.0725" y="38.70125" transform="rotate(-0 151.0725 38.70125)">reference</text>
    </g>
   </g>
  </g>
 </g>
 <defs>
  <clipPath id="pe054fa8ad6">
   <rect x="45.92" y="13.68" width="183.895" height="124.747091"/>
  </clipPath>
 </defs>
</svg>
