<?xml version="1.0" encoding="utf-8" standalone="no"?>
<!DOCTYPE svg PUBLIC "-//W3C//DTD SVG 1.1//EN"
  "http://www.w3.org/Graphics/SVG/1.1/DTD/svg11.dtd">
<svg xmlns:xlink="http://www.w3.org/1999/xlink" width="246.96pt" height="174.627091pt" viewBox="0 0 246.96 174.627091" xmlns="http://www.w3.org/2000/svg" version="1.1">
 <metadata>
  <rdf:RDF xmlns:dc="http://purl.org/dc/elements/1.1/" xmlns:cc="http://creativecommons.org/ns#" xmlns:rdf="http://www.w3.org/1999/02/22-rdf-syntax-ns#">
   <cc:Work>
    <dc:type rdf:resource="http://purl.org/dc/dcmitype/StillImage"/>
    <dc:date>2023-10-11T17:38:49.128164</dc:date>
    <dc:format>image/svg+xml</dc:format>
    <dc:creator>
     <cc:Agent>
      <dc:title>Matplotlib v3.8.0, https://matplotlib.org/</dc:title>
     </cc:Agent>
    </dc:creator>
   </cc:Work>
  </rdf:RDF>
 </metadata>
 <defs>
  <style type="text/css">*{stroke-linejoin: round; stroke-linecap: butt}</style>
 </defs>
 <g id="figure_1">
  <g id="patch_1">
   <path d="M 0 174.627091 
L 246.96 174.627091 
L 246.96 0 
L 0 0 
z
" style="fill: #ffffff"/>
  </g>
  <g id="axes_1">
   <g id="patch_2">
    <path d="M 45.92 138.427091 
L 236.16 138.427091 
L 236.16 13.68 
L 45.92 13.68 
z
" style="fill: #ffffff"/>
   </g>
   <g id="matplotlib.axis_1">
    <g id="xtick_1">
     <g id="line2d_1">
      <defs>
       <path id="m32fbc4d5de" d="M 0 0 
L 0 3.5 
" style="stroke: #000000; stroke-width: 0.8"/>
      </defs>
      <g>
       <use xlink:href="#m32fbc4d5de" x="64.944" y="138.427091" style="stroke: #000000; stroke-width: 0.8"/>
      </g>
     </g>
     <g id="text_1">
      <text style="font: 8px 'DejaVu Sans', 'Bitstream Vera Sans', 'Computer Modern Sans Serif', 'Lucida Grande', 'Verdana', 'Geneva', 'Lucid', 'Arial', 'Helvetica', 'Avant Garde', sans-serif; text-anchor: middle" x="64.944" y="151.505841" transform="rotate(-0 64.944 151.505841)">−4</text>
     </g>
    </g>
    <g id="xtick_2">
     <g id="line2d_2">
      <g>
       <use xlink:href="#m32fbc4d5de" x="102.992" y="138.427091" style="stroke: #000000; stroke-width: 0.8"/>
      </g>
     </g>
     <g id="text_2">
      <text style="font: 8px 'DejaVu Sans', 'Bitstream Vera Sans', 'Computer Modern Sans Serif', 'Lucida Grande', 'Verdana', 'Geneva', 'Lucid', 'Arial', 'Helvetica', 'Avant Garde', sans-serif; text-anchor: middle" x="102.992" y="151.505841" transform="rotate(-0 102.992 151.505841)">−2</text>
     </g>
    </g>
    <g id="xtick_3">
     <g id="line2d_3">
      <g>
       <use xlink:href="#m32fbc4d5de" x="141.04" y="138.427091" style="stroke: #000000; stroke-width: 0.8"/>
      </g>
     </g>
     <g id="text_3">
      <text style="font: 8px 'DejaVu Sans', 'Bitstream Vera Sans', 'Computer Modern Sans Serif', 'Lucida Grande', 'Verdana', 'Geneva', 'Lucid', 'Arial', 'Helvetica', 'Avant Garde', sans-serif; text-anchor: middle" x="141.04" y="151.505841" transform="rotate(-0 141.04 151.505841)">0</text>
     </g>
    </g>
    <g id="xtick_4">
     <g id="line2d_4">
      <g>
       <use xlink:href="#m32fbc4d5de" x="179.088" y="138.427091" style="stroke: #000000; stroke-width: 0.8"/>
      </g>
     </g>
     <g id="text_4">
      <text style="font: 8px 'DejaVu Sans', 'Bitstream Vera Sans', 'Computer Modern Sans Serif', 'Lucida Grande', 'Verdana', 'Geneva', 'Lucid', 'Arial', 'Helvetica', 'Avant Garde', sans-serif; text-anchor: middle" x="179.088" y="151.505841" transform="rotate(-0 179.088 151.505841)">2</text>
     </g>
    </g>
    <g id="xtick_5">
     <g id="line2d_5">
      <g>
       <use xlink:href="#m32fbc4d5de" x="217.136" y="138.427091" style="stroke: #000000; stroke-width: 0.8"/>
      </g>
     </g>
     <g id="text_5">
      <text style="font: 8px 'DejaVu Sans', 'Bitstream Vera Sans', 'Computer Modern Sans Serif', 'Lucida Grande', 'Verdana', 'Geneva', 'Lucid', 'Arial', 'Helvetica', 'Avant Garde', sans-serif; text-anchor: middle" x="217.136" y="151.505841" transform="rotate(-0 217.136 151.505841)">4</text>
     </g>
    </g>
    <g id="text_6">
     <text style="font: 8px 'DejaVu Sans', 'Bitstream Vera Sans', 'Computer Modern Sans Serif', 'Lucida Grande', 'Verdana', 'Geneva', 'Lucid', 'Arial', 'Helvetica', 'Avant Garde', sans-serif; text-anchor: middle" x="141.04" y="163.248341" transform="rotate(-0 141.04 163.248341)">ground azimuth [m]</text>
    </g>
   </g>
   <g id="matplotlib.axis_2">
    <g id="ytick_1">
     <g id="line2d_6">
      <defs>
       <path id="mfb62380142" d="M 0 0 
L -3.5 0 
" style="stroke: #000000; stroke-width: 0.8"/>
      </defs>
      <g>
       <use xlink:href="#mfb62380142" x="45.92" y="125.061331" style="stroke: #000000; stroke-width: 0.8"/>
      </g>
     </g>
     <g id="text_7">
      <text style="font: 8px 'DejaVu Sans', 'Bitstream Vera Sans', 'Computer Modern Sans Serif', 'Lucida Grande', 'Verdana', 'Geneva', 'Lucid', 'Arial', 'Helvetica', 'Avant Garde', sans-serif; text-anchor: end" x="38.92" y="128.100706" transform="rotate(-0 38.92 128.100706)">−25</text>
     </g>
    </g>
    <g id="ytick_2">
     <g id="line2d_7">
      <g>
       <use xlink:href="#mfb62380142" x="45.92" y="102.785065" style="stroke: #000000; stroke-width: 0.8"/>
      </g>
     </g>
     <g id="text_8">
      <text style="font: 8px 'DejaVu Sans', 'Bitstream Vera Sans', 'Computer Modern Sans Serif', 'Lucida Grande', 'Verdana', 'Geneva', 'Lucid', 'Arial', 'Helvetica', 'Avant Garde', sans-serif; text-anchor: end" x="38.92" y="105.82444" transform="rotate(-0 38.92 105.82444)">−20</text>
     </g>
    </g>
    <g id="ytick_3">
     <g id="line2d_8">
      <g>
       <use xlink:href="#mfb62380142" x="45.92" y="80.508799" style="stroke: #000000; stroke-width: 0.8"/>
      </g>
     </g>
     <g id="text_9">
      <text style="font: 8px 'DejaVu Sans', 'Bitstream Vera Sans', 'Computer Modern Sans Serif', 'Lucida Grande', 'Verdana', 'Geneva', 'Lucid', 'Arial', 'Helvetica', 'Avant Garde', sans-serif; text-anchor: end" x="38.92" y="83.548174" transform="rotate(-0 38.92 83.548174)">−15</text>
     </g>
    </g>
    <g id="ytick_4">
     <g id="line2d_9">
      <g>
       <use xlink:href="#mfb62380142" x="45.92" y="58.232532" style="stroke: #000000; stroke-width: 0.8"/>
      </g>
     </g>
     <g id="text_10">
      <text style="font: 8px 'DejaVu Sans', 'Bitstream Vera Sans', 'Computer Modern Sans Serif', 'Lucida Grande', 'Verdana', 'Geneva', 'Lucid', 'Arial', 'Helvetica', 'Avant Garde', sans-serif; text-anchor: end" x="38.92" y="61.271907" transform="rotate(-0 38.92 61.271907)">−10</text>
     </g>
    </g>
    <g id="ytick_5">
     <g id="line2d_10">
      <g>
       <use xlink:href="#mfb62380142" x="45.92" y="35.956266" style="stroke: #000000; stroke-width: 0.8"/>
      </g>
     </g>
     <g id="text_11">
      <text style="font: 8px 'DejaVu Sans', 'Bitstream Vera Sans', 'Computer Modern Sans Serif', 'Lucida Grande', 'Verdana', 'Geneva', 'Lucid', 'Arial', 'Helvetica', 'Avant Garde', sans-serif; text-anchor: end" x="38.92" y="38.995641" transform="rotate(-0 38.92 38.995641)">−5</text>
     </g>
    </g>
    <g id="ytick_6">
     <g id="line2d_11">
      <g>
       <use xlink:href="#mfb62380142" x="45.92" y="13.68" style="stroke: #000000; stroke-width: 0.8"/>
      </g>
     </g>
     <g id="text_12">
      <text style="font: 8px 'DejaVu Sans', 'Bitstream Vera Sans', 'Computer Modern Sans Serif', 'Lucida Grande', 'Verdana', 'Geneva', 'Lucid', 'Arial', 'Helvetica', 'Avant Garde', sans-serif; text-anchor: end" x="38.92" y="16.719375" transform="rotate(-0 38.92 16.719375)">0</text>
     </g>
    </g>
    <g id="text_13">
     <text style="font: 8px 'DejaVu Sans', 'Bitstream Vera Sans', 'Computer Modern Sans Serif', 'Lucida Grande', 'Verdana', 'Geneva', 'Lucid', 'Arial', 'Helvetica', 'Avant Garde', sans-serif; text-anchor: middle" x="16.3725" y="76.053545" transform="rotate(-90 16.3725 76.053545)">normalized amplitude [dB]</text>
    </g>
   </g>
   <g id="line2d_12">
    <path d="M 45.901876 126.443944 
L 46.496833 127.859869 
L 47.157897 130.063822 
L 47.863032 133.248057 
L 48.590203 137.612825 
L 49.317373 143.379082 
L 50.022508 150.809319 
L 50.683572 160.23769 
L 51.278529 172.105833 
L 51.418456 175.627091 
M 54.183924 175.627091 
L 54.782168 161.630673 
L 55.487303 150.056367 
L 56.28058 140.588823 
L 57.117928 133.148394 
L 57.977311 127.398728 
L 58.836694 123.094327 
L 59.652006 120.101439 
L 60.379177 118.213634 
L 61.018205 117.114349 
L 61.569092 116.568971 
L 62.031837 116.393975 
L 62.450511 116.45865 
L 62.89122 116.758835 
L 63.376 117.37156 
L 63.926887 118.4437 
L 64.54388 120.153869 
L 65.226979 122.745157 
L 65.95415 126.442034 
L 66.68132 131.330576 
L 67.40849 137.787727 
L 68.09159 145.880533 
L 68.730618 156.215266 
L 69.281505 168.816892 
L 69.506373 175.627091 
M 71.720982 175.627091 
L 72.278328 159.804334 
L 72.939392 147.023162 
L 73.688598 136.651648 
L 74.503911 128.319488 
L 75.363294 121.743642 
L 76.222677 116.815875 
L 77.037989 113.347526 
L 77.787195 111.043554 
L 78.470294 109.609607 
L 79.043217 108.871093 
L 79.527997 108.569525 
L 79.946671 108.54729 
L 80.365344 108.748696 
L 80.828089 109.2383 
L 81.35694 110.156239 
L 81.951898 111.677995 
L 82.590927 113.950742 
L 83.274026 117.224675 
L 83.979161 121.719075 
L 84.684296 127.685627 
L 85.367395 135.437144 
L 85.984388 144.990905 
L 86.535275 156.986386 
L 86.99802 171.870006 
L 87.087419 175.627091 
M 88.75871 175.627091 
L 89.245637 157.44634 
L 89.86263 142.402902 
L 90.567765 130.405728 
L 91.361042 120.540516 
L 92.220425 112.540366 
L 93.101844 106.324969 
L 93.983262 101.621241 
L 94.82061 98.291371 
L 95.591851 96.079063 
L 96.274951 94.749894 
L 96.847873 94.073859 
L 97.332653 93.811263 
L 97.773363 93.820843 
L 98.214072 94.07224 
L 98.676817 94.605905 
L 99.205668 95.572692 
L 99.800625 97.152757 
L 100.461689 99.594856 
L 101.144789 103.010436 
L 101.849924 107.71898 
L 102.555059 114.026471 
L 103.216123 122.031394 
L 103.81108 131.957526 
L 104.339931 144.554172 
L 104.780641 160.421164 
L 105.054936 175.627091 
M 106.135474 175.627091 
L 106.543478 153.347831 
L 107.094365 135.147869 
L 107.755429 120.650096 
L 108.504635 108.950248 
L 109.341982 99.239325 
L 110.245436 91.290753 
L 111.170926 85.052908 
L 112.07438 80.38609 
L 112.933763 77.027554 
L 113.72704 74.756305 
L 114.432175 73.362705 
L 115.027132 72.633512 
L 115.533948 72.336177 
L 115.974657 72.325317 
L 116.393331 72.536008 
L 116.856076 73.031697 
L 117.384927 73.959563 
L 117.957849 75.442983 
L 118.596878 77.7679 
L 119.257942 81.063672 
L 119.941041 85.678877 
L 120.602105 91.736534 
L 121.219098 99.463359 
L 121.79202 109.516912 
L 122.298836 122.567911 
L 122.71751 139.490224 
L 123.026007 160.836691 
L 123.155517 175.627091 
M 123.690815 175.627091 
L 124.017603 143.76153 
L 124.458312 121.330952 
L 125.031234 103.195303 
L 125.714333 88.342827 
L 126.529646 75.35961 
L 127.455135 64.113669 
L 128.468767 54.415124 
L 129.57054 45.944748 
L 130.73842 38.650417 
L 131.928335 32.571576 
L 133.140285 27.502906 
L 134.330201 23.449412 
L 135.476045 20.298517 
L 136.577818 17.895253 
L 137.59145 16.18598 
L 138.538975 14.999374 
L 139.420393 14.238955 
L 140.235705 13.823181 
L 140.984911 13.681585 
L 141.712082 13.763364 
L 142.461288 14.074062 
L 143.254564 14.656037 
L 144.091912 15.557926 
L 144.995366 16.872019 
L 145.964927 18.693014 
L 147.000594 21.136567 
L 148.080331 24.277987 
L 149.20414 28.263417 
L 150.327949 33.085171 
L 151.451758 38.899718 
L 152.553531 45.792683 
L 153.611233 53.853571 
L 154.602829 63.178083 
L 155.506283 73.861928 
L 156.29956 85.964533 
L 156.98266 99.903421 
L 157.533546 115.648884 
L 157.974256 134.475653 
L 158.304788 157.836928 
L 158.455292 175.627091 
M 158.99059 175.627091 
L 159.318419 145.757801 
L 159.759128 125.49617 
L 160.28798 110.939219 
L 160.904973 99.789163 
L 161.588072 91.271496 
L 162.315242 84.835955 
L 163.064448 80.084748 
L 163.791619 76.795572 
L 164.496754 74.57899 
L 165.135782 73.261175 
L 165.686669 72.589583 
L 166.171449 72.325317 
L 166.612158 72.336177 
L 167.052868 72.577725 
L 167.559683 73.134493 
L 168.132605 74.120489 
L 168.793669 75.73393 
L 169.52084 78.12118 
L 170.314117 81.516431 
L 171.151464 86.117065 
L 172.010847 92.150017 
L 172.848195 99.685907 
L 173.641472 108.950248 
L 174.346607 119.851512 
L 174.9636 132.876885 
L 175.492451 148.983592 
L 175.911125 168.940041 
L 176.010633 175.627091 
M 177.09117 175.627091 
L 177.497678 154.873964 
L 178.02653 138.711768 
L 178.643523 126.400154 
L 179.348658 116.679492 
L 180.097863 109.308176 
L 180.869105 103.792714 
L 181.640346 99.786054 
L 182.389552 97.016658 
L 183.072651 95.293909 
L 183.667609 94.34257 
L 184.174425 93.903615 
L 184.615134 93.786058 
L 185.033808 93.895395 
L 185.496553 94.263031 
L 186.025404 94.999842 
L 186.620361 96.23852 
L 187.303461 98.21722 
L 188.052667 101.123768 
L 188.845943 105.147533 
L 189.661256 110.49274 
L 190.476568 117.404053 
L 191.247809 125.932551 
L 191.952944 136.283695 
L 192.569937 148.661694 
L 193.098788 163.867105 
L 193.387396 175.627091 
M 195.058687 175.627091 
L 195.544725 158.763388 
L 196.139683 145.39463 
L 196.822782 134.861595 
L 197.571988 126.636304 
L 198.343229 120.473931 
L 199.136506 115.843957 
L 199.885712 112.687573 
L 200.590847 110.603839 
L 201.229875 109.364212 
L 201.780762 108.748696 
L 202.243507 108.53917 
L 202.662181 108.584736 
L 203.10289 108.871093 
L 203.58767 109.46882 
L 204.160592 110.563799 
L 204.799621 112.30225 
L 205.504756 114.901527 
L 206.253961 118.5424 
L 207.047238 123.569599 
L 207.81848 129.921599 
L 208.567685 137.983322 
L 209.250785 147.74615 
L 209.867778 159.804334 
L 210.396629 174.635654 
L 210.425125 175.627091 
M 212.639734 175.627091 
L 213.195133 160.715299 
L 213.856197 148.736169 
L 214.583368 139.4145 
L 215.376644 132.019926 
L 216.191957 126.442034 
L 216.985233 122.45953 
L 217.734439 119.73963 
L 218.439574 117.96538 
L 219.056567 116.973128 
L 219.585418 116.511192 
L 220.048163 116.390054 
L 220.466837 116.503908 
L 220.929582 116.875615 
L 221.458433 117.619421 
L 222.053391 118.874064 
L 222.714455 120.814864 
L 223.441625 123.6748 
L 224.212866 127.655473 
L 225.006143 132.979653 
L 225.777384 139.700245 
L 226.52659 148.266327 
L 227.20969 158.75018 
L 227.804647 171.399645 
L 227.962183 175.627091 
M 230.727651 175.627091 
L 231.330322 162.529377 
L 232.035457 151.90422 
L 232.806698 143.580457 
L 233.599975 137.312273 
L 234.393252 132.687953 
L 235.164493 129.406917 
L 235.891663 127.221276 
L 236.178124 126.576351 
L 236.178124 126.576351 
" clip-path="url(#p26af1f5b21)" style="fill: none; stroke: #1f77b4; stroke-width: 1.5; stroke-linecap: square"/>
   </g>
   <g id="line2d_13">
    <path d="M 45.901876 125.397128 
L 46.496833 126.815902 
L 47.157897 129.015942 
L 47.863032 132.186235 
L 48.590203 136.522631 
L 49.317373 142.23933 
L 50.022508 149.58736 
L 50.683572 158.879881 
L 51.278529 170.517251 
L 51.481737 175.627091 
M 54.196739 175.627091 
L 54.804204 161.262366 
L 55.509339 149.63658 
L 56.302616 140.147007 
L 57.139963 132.703171 
L 57.999347 126.962414 
L 58.836694 122.770217 
L 59.629971 119.843189 
L 60.357141 117.940296 
L 60.99617 116.835158 
L 61.547057 116.290047 
L 62.009801 116.119138 
L 62.428475 116.190715 
L 62.869185 116.501726 
L 63.353965 117.131066 
L 63.904851 118.229041 
L 64.521844 119.978908 
L 65.204944 122.631528 
L 65.910079 126.290627 
L 66.637249 131.275704 
L 67.36442 137.889766 
L 68.047519 146.232703 
L 68.664512 156.555233 
L 69.215399 169.688009 
L 69.40407 175.627091 
M 71.568391 175.627091 
L 72.102045 159.905056 
L 72.763109 146.668422 
L 73.512315 135.982071 
L 74.327627 127.403478 
L 75.18701 120.614767 
L 76.046393 115.494246 
L 76.883741 111.763823 
L 77.654982 109.255971 
L 78.360117 107.661036 
L 78.97711 106.779257 
L 79.483926 106.403765 
L 79.924635 106.331781 
L 80.343309 106.484989 
L 80.806054 106.911393 
L 81.31287 107.700227 
L 81.885792 109.022217 
L 82.52482 111.086304 
L 83.20792 114.076062 
L 83.93509 118.32664 
L 84.66226 123.98592 
L 85.367395 131.329774 
L 86.006424 140.347407 
L 86.579346 151.569109 
L 87.086162 166.0639 
L 87.323655 175.627091 
M 88.942508 175.627091 
L 89.443956 156.577872 
L 90.060949 141.475297 
L 90.766084 129.46832 
L 91.559361 119.618307 
L 92.418744 111.647663 
L 93.300163 105.469116 
L 94.181582 100.805742 
L 95.018929 97.516191 
L 95.790171 95.342277 
L 96.451235 94.080811 
L 97.024157 93.419453 
L 97.508937 93.169799 
L 97.949646 93.191442 
L 98.390356 93.455097 
L 98.875136 94.034893 
L 99.426023 95.083216 
L 100.02098 96.720499 
L 100.682044 99.23229 
L 101.365144 102.729834 
L 102.070278 107.539637 
L 102.775413 113.977213 
L 103.436477 122.15344 
L 104.031435 132.320371 
L 104.560286 145.300935 
L 105.000995 161.85619 
L 105.24122 175.627091 
M 106.318421 175.627091 
L 106.719762 153.488046 
L 107.248613 135.750575 
L 107.887641 121.436801 
L 108.636847 109.512791 
L 109.474195 99.674524 
L 110.355614 91.828009 
L 111.281103 85.519889 
L 112.184557 80.817783 
L 113.04394 77.447211 
L 113.837217 75.179847 
L 114.520317 73.834866 
L 115.115274 73.110347 
L 115.62209 72.822802 
L 116.062799 72.824995 
L 116.481473 73.052293 
L 116.944218 73.571608 
L 117.473069 74.534253 
L 118.045991 76.066681 
L 118.68502 78.464271 
L 119.346084 81.863181 
L 120.007148 86.452951 
L 120.668212 92.66813 
L 121.285205 100.63446 
L 121.858127 111.081353 
L 122.342907 124.091985 
L 122.739546 140.673378 
L 123.048042 162.834734 
L 123.157456 175.627091 
M 123.69562 175.627091 
L 124.017603 144.158702 
L 124.458312 121.619671 
L 125.031234 103.425905 
L 125.714333 88.535829 
L 126.529646 75.523417 
L 127.455135 64.25341 
L 128.468767 54.534372 
L 129.57054 46.046034 
L 130.73842 38.736093 
L 131.928335 32.644114 
L 133.140285 27.5644 
L 134.330201 23.502017 
L 135.476045 20.344181 
L 136.577818 17.935607 
L 137.59145 16.222549 
L 138.538975 15.033312 
L 139.420393 14.271206 
L 140.235705 13.854508 
L 140.984911 13.712598 
L 141.712082 13.794559 
L 142.461288 14.105946 
L 143.254564 14.689213 
L 144.091912 15.593103 
L 144.995366 16.910107 
L 145.964927 18.735132 
L 147.000594 21.184079 
L 148.080331 24.332412 
L 149.20414 28.326573 
L 150.327949 33.158824 
L 151.451758 38.98593 
L 152.553531 45.893646 
L 153.611233 53.971633 
L 154.602829 63.315844 
L 155.506283 74.022489 
L 156.29956 86.152005 
L 156.98266 100.125127 
L 157.533546 115.917391 
L 157.974256 134.821187 
L 158.304788 158.338968 
L 158.450487 175.627091 
M 158.98865 175.627091 
L 159.318419 145.744139 
L 159.759128 125.582248 
L 160.28798 111.081353 
L 160.904973 99.973114 
L 161.588072 91.492172 
L 162.315242 85.092403 
L 163.064448 80.377981 
L 163.791619 77.126266 
L 164.474718 75.004128 
L 165.091711 73.738664 
L 165.642598 73.070521 
L 166.105343 72.819191 
L 166.546052 72.828914 
L 166.986761 73.073229 
L 167.471541 73.607167 
L 168.044464 74.593748 
L 168.705527 76.216595 
L 169.432698 78.62612 
L 170.225975 82.062754 
L 171.063322 86.732553 
L 171.90067 92.698775 
L 172.715982 100.125907 
L 173.487224 109.21455 
L 174.192359 120.21824 
L 174.809352 133.43654 
L 175.316167 149.083171 
L 175.734841 169.297277 
L 175.827686 175.627091 
M 176.904886 175.627091 
L 177.321395 154.286895 
L 177.850246 138.179802 
L 178.467239 125.88963 
L 179.172374 116.170783 
L 179.92158 108.789707 
L 180.692821 103.258159 
L 181.464062 99.23229 
L 182.213268 96.442693 
L 182.896368 94.700903 
L 183.491325 93.732839 
L 184.020176 93.267466 
L 184.460886 93.149816 
L 184.87956 93.259058 
L 185.342304 93.626836 
L 185.871155 94.364491 
L 186.466113 95.605565 
L 187.149213 97.589926 
L 187.898418 100.508126 
L 188.691695 104.55386 
L 189.507007 109.93836 
L 190.300284 116.70401 
L 191.071525 125.279471 
L 191.77666 135.725236 
L 192.393653 148.280885 
L 192.922505 163.83231 
L 193.203598 175.627091 
M 194.822451 175.627091 
L 195.32437 157.759318 
L 195.919328 144.214713 
L 196.602427 133.547016 
L 197.351633 125.203027 
L 198.14491 118.77689 
L 198.938187 114.076062 
L 199.709428 110.761957 
L 200.436598 108.564721 
L 201.075627 107.279935 
L 201.626514 106.615162 
L 202.111294 106.351012 
L 202.552003 106.363523 
L 202.992713 106.613168 
L 203.477493 107.161396 
L 204.028379 108.137265 
L 204.667408 109.756494 
L 205.372543 112.191714 
L 206.121749 115.608072 
L 206.915025 120.31556 
L 207.708302 126.421178 
L 208.479544 134.157992 
L 209.184678 143.494688 
L 209.823707 154.940242 
L 210.374594 168.856512 
L 210.577716 175.627091 
M 212.742037 175.627091 
L 213.283275 160.724145 
L 213.922304 148.849342 
L 214.649474 139.316183 
L 215.420715 131.980169 
L 216.213992 126.422133 
L 217.007269 122.338996 
L 217.756475 119.555062 
L 218.46161 117.739414 
L 219.078603 116.722185 
L 219.607454 116.245608 
L 220.070199 116.116099 
L 220.488872 116.225632 
L 220.951617 116.595954 
L 221.458433 117.304347 
L 222.053391 118.550551 
L 222.714455 120.488001 
L 223.441625 123.352114 
L 224.212866 127.347923 
L 225.006143 132.703171 
L 225.777384 139.477115 
L 226.504555 147.840991 
L 227.187654 158.366468 
L 227.782612 171.097682 
L 227.949367 175.627091 
M 230.664369 175.627091 
L 231.264215 162.321171 
L 231.96935 151.507255 
L 232.740592 143.04745 
L 233.533868 136.673666 
L 234.349181 131.849036 
L 235.142457 128.439939 
L 235.869628 126.231402 
L 236.178124 125.530131 
L 236.178124 125.530131 
" clip-path="url(#p26af1f5b21)" style="fill: none; stroke-dasharray: 5.55,2.4; stroke-dashoffset: 0; stroke: #ff7f0e; stroke-width: 1.5"/>
   </g>
   <g id="patch_3">
    <path d="M 45.92 138.427091 
L 45.92 13.68 
" style="fill: none; stroke: #000000; stroke-width: 0.8; stroke-linejoin: miter; stroke-linecap: square"/>
   </g>
   <g id="patch_4">
    <path d="M 236.16 138.427091 
L 236.16 13.68 
" style="fill: none; stroke: #000000; stroke-width: 0.8; stroke-linejoin: miter; stroke-linecap: square"/>
   </g>
   <g id="patch_5">
    <path d="M 45.92 138.427091 
L 236.16 138.427091 
" style="fill: none; stroke: #000000; stroke-width: 0.8; stroke-linejoin: miter; stroke-linecap: square"/>
   </g>
   <g id="patch_6">
    <path d="M 45.92 13.68 
L 236.16 13.68 
" style="fill: none; stroke: #000000; stroke-width: 0.8; stroke-linejoin: miter; stroke-linecap: square"/>
   </g>
   <g id="legend_1">
    <g id="patch_7">
     <path d="M 133.4175 43.565 
L 230.56 43.565 
Q 232.16 43.565 232.16 41.965 
L 232.16 19.28 
Q 232.16 17.68 230.56 17.68 
L 133.4175 17.68 
Q 131.8175 17.68 131.8175 19.28 
L 131.8175 41.965 
Q 131.8175 43.565 133.4175 43.565 
z
" style="fill: #ffffff; opacity: 0.8; stroke: #cccccc; stroke-linejoin: miter"/>
    </g>
    <g id="line2d_14">
     <path d="M 135.0175 24.15875 
L 143.0175 24.15875 
L 151.0175 24.15875 
" style="fill: none; stroke: #1f77b4; stroke-width: 1.5; stroke-linecap: square"/>
    </g>
    <g id="text_14">
     <text style="font: 8px 'DejaVu Sans', 'Bitstream Vera Sans', 'Computer Modern Sans Serif', 'Lucida Grande', 'Verdana', 'Geneva', 'Lucid', 'Arial', 'Helvetica', 'Avant Garde', sans-serif; text-anchor: start" x="157.4175" y="26.95875" transform="rotate(-0 157.4175 26.95875)">distorted antenna</text>
    </g>
    <g id="line2d_15">
     <path d="M 135.0175 35.90125 
L 143.0175 35.90125 
L 151.0175 35.90125 
" style="fill: none; stroke-dasharray: 5.55,2.4; stroke-dashoffset: 0; stroke: #ff7f0e; stroke-width: 1.5"/>
    </g>
    <g id="text_15">
     <text style="font: 8px 'DejaVu Sans', 'Bitstream Vera Sans', 'Computer Modern Sans Serif', 'Lucida Grande', 'Verdana', 'Geneva', 'Lucid', 'Arial', 'Helvetica', 'Avant Garde', sans-serif; text-anchor: start" x="157.4175" y="38.70125" transform="rotate(-0 157.4175 38.70125)">reference</text>
    </g>
   </g>
  </g>
 </g>
 <defs>
  <clipPath id="p26af1f5b21">
   <rect x="45.92" y="13.68" width="190.24" height="124.747091"/>
  </clipPath>
 </defs>
</svg>
