<?xml version="1.0" encoding="utf-8" standalone="no"?>
<!DOCTYPE svg PUBLIC "-//W3C//DTD SVG 1.1//EN"
  "http://www.w3.org/Graphics/SVG/1.1/DTD/svg11.dtd">
<svg xmlns:xlink="http://www.w3.org/1999/xlink" width="246.96pt" height="174.627091pt" viewBox="0 0 246.96 174.627091" xmlns="http://www.w3.org/2000/svg" version="1.1">
 <metadata>
  <rdf:RDF xmlns:dc="http://purl.org/dc/elements/1.1/" xmlns:cc="http://creativecommons.org/ns#" xmlns:rdf="http://www.w3.org/1999/02/22-rdf-syntax-ns#">
   <cc:Work>
    <dc:type rdf:resource="http://purl.org/dc/dcmitype/StillImage"/>
    <dc:date>2023-10-12T12:33:54.866355</dc:date>
    <dc:format>image/svg+xml</dc:format>
    <dc:creator>
     <cc:Agent>
      <dc:title>Matplotlib v3.8.0, https://matplotlib.org/</dc:title>
     </cc:Agent>
    </dc:creator>
   </cc:Work>
  </rdf:RDF>
 </metadata>
 <defs>
  <style type="text/css">*{stroke-linejoin: round; stroke-linecap: butt}</style>
 </defs>
 <g id="figure_1">
  <g id="patch_1">
   <path d="M 0 174.627091 
L 246.96 174.627091 
L 246.96 0 
L 0 0 
z
" style="fill: #ffffff"/>
  </g>
  <g id="axes_1">
   <g id="patch_2">
    <path d="M 39.26 138.427091 
L 236.16 138.427091 
L 236.16 10.8 
L 39.26 10.8 
z
" style="fill: #ffffff"/>
   </g>
   <g id="matplotlib.axis_1">
    <g id="xtick_1">
     <g id="line2d_1">
      <defs>
       <path id="m90c8a42457" d="M 0 0 
L 0 3.5 
" style="stroke: #000000; stroke-width: 0.8"/>
      </defs>
      <g>
       <use xlink:href="#m90c8a42457" x="40.077061" y="138.427091" style="stroke: #000000; stroke-width: 0.8"/>
      </g>
     </g>
     <g id="text_1">
      <text style="font: 8px 'DejaVu Sans', 'Bitstream Vera Sans', 'Computer Modern Sans Serif', 'Lucida Grande', 'Verdana', 'Geneva', 'Lucid', 'Arial', 'Helvetica', 'Avant Garde', sans-serif; text-anchor: middle" x="40.077061" y="151.505841" transform="rotate(-0 40.077061 151.505841)">160</text>
     </g>
    </g>
    <g id="xtick_2">
     <g id="line2d_2">
      <g>
       <use xlink:href="#m90c8a42457" x="75.877061" y="138.427091" style="stroke: #000000; stroke-width: 0.8"/>
      </g>
     </g>
     <g id="text_2">
      <text style="font: 8px 'DejaVu Sans', 'Bitstream Vera Sans', 'Computer Modern Sans Serif', 'Lucida Grande', 'Verdana', 'Geneva', 'Lucid', 'Arial', 'Helvetica', 'Avant Garde', sans-serif; text-anchor: middle" x="75.877061" y="151.505841" transform="rotate(-0 75.877061 151.505841)">180</text>
     </g>
    </g>
    <g id="xtick_3">
     <g id="line2d_3">
      <g>
       <use xlink:href="#m90c8a42457" x="111.677061" y="138.427091" style="stroke: #000000; stroke-width: 0.8"/>
      </g>
     </g>
     <g id="text_3">
      <text style="font: 8px 'DejaVu Sans', 'Bitstream Vera Sans', 'Computer Modern Sans Serif', 'Lucida Grande', 'Verdana', 'Geneva', 'Lucid', 'Arial', 'Helvetica', 'Avant Garde', sans-serif; text-anchor: middle" x="111.677061" y="151.505841" transform="rotate(-0 111.677061 151.505841)">200</text>
     </g>
    </g>
    <g id="xtick_4">
     <g id="line2d_4">
      <g>
       <use xlink:href="#m90c8a42457" x="147.477061" y="138.427091" style="stroke: #000000; stroke-width: 0.8"/>
      </g>
     </g>
     <g id="text_4">
      <text style="font: 8px 'DejaVu Sans', 'Bitstream Vera Sans', 'Computer Modern Sans Serif', 'Lucida Grande', 'Verdana', 'Geneva', 'Lucid', 'Arial', 'Helvetica', 'Avant Garde', sans-serif; text-anchor: middle" x="147.477061" y="151.505841" transform="rotate(-0 147.477061 151.505841)">220</text>
     </g>
    </g>
    <g id="xtick_5">
     <g id="line2d_5">
      <g>
       <use xlink:href="#m90c8a42457" x="183.277061" y="138.427091" style="stroke: #000000; stroke-width: 0.8"/>
      </g>
     </g>
     <g id="text_5">
      <text style="font: 8px 'DejaVu Sans', 'Bitstream Vera Sans', 'Computer Modern Sans Serif', 'Lucida Grande', 'Verdana', 'Geneva', 'Lucid', 'Arial', 'Helvetica', 'Avant Garde', sans-serif; text-anchor: middle" x="183.277061" y="151.505841" transform="rotate(-0 183.277061 151.505841)">240</text>
     </g>
    </g>
    <g id="xtick_6">
     <g id="line2d_6">
      <g>
       <use xlink:href="#m90c8a42457" x="219.077061" y="138.427091" style="stroke: #000000; stroke-width: 0.8"/>
      </g>
     </g>
     <g id="text_6">
      <text style="font: 8px 'DejaVu Sans', 'Bitstream Vera Sans', 'Computer Modern Sans Serif', 'Lucida Grande', 'Verdana', 'Geneva', 'Lucid', 'Arial', 'Helvetica', 'Avant Garde', sans-serif; text-anchor: middle" x="219.077061" y="151.505841" transform="rotate(-0 219.077061 151.505841)">260</text>
     </g>
    </g>
    <g id="text_7">
     <text style="font: 8px 'DejaVu Sans', 'Bitstream Vera Sans', 'Computer Modern Sans Serif', 'Lucida Grande', 'Verdana', 'Geneva', 'Lucid', 'Arial', 'Helvetica', 'Avant Garde', sans-serif; text-anchor: middle" x="137.71" y="163.248341" transform="rotate(-0 137.71 163.248341)">ground range [km]</text>
    </g>
   </g>
   <g id="matplotlib.axis_2">
    <g id="ytick_1">
     <g id="line2d_7">
      <defs>
       <path id="m1ff94762c9" d="M 0 0 
L -3.5 0 
" style="stroke: #000000; stroke-width: 0.8"/>
      </defs>
      <g>
       <use xlink:href="#m1ff94762c9" x="39.26" y="117.100788" style="stroke: #000000; stroke-width: 0.8"/>
      </g>
     </g>
     <g id="text_8">
      <text style="font: 8px 'DejaVu Sans', 'Bitstream Vera Sans', 'Computer Modern Sans Serif', 'Lucida Grande', 'Verdana', 'Geneva', 'Lucid', 'Arial', 'Helvetica', 'Avant Garde', sans-serif; text-anchor: end" x="32.26" y="120.140163" transform="rotate(-0 32.26 120.140163)">48</text>
     </g>
    </g>
    <g id="ytick_2">
     <g id="line2d_8">
      <g>
       <use xlink:href="#m1ff94762c9" x="39.26" y="77.465352" style="stroke: #000000; stroke-width: 0.8"/>
      </g>
     </g>
     <g id="text_9">
      <text style="font: 8px 'DejaVu Sans', 'Bitstream Vera Sans', 'Computer Modern Sans Serif', 'Lucida Grande', 'Verdana', 'Geneva', 'Lucid', 'Arial', 'Helvetica', 'Avant Garde', sans-serif; text-anchor: end" x="32.26" y="80.504727" transform="rotate(-0 32.26 80.504727)">50</text>
     </g>
    </g>
    <g id="ytick_3">
     <g id="line2d_9">
      <g>
       <use xlink:href="#m1ff94762c9" x="39.26" y="37.829917" style="stroke: #000000; stroke-width: 0.8"/>
      </g>
     </g>
     <g id="text_10">
      <text style="font: 8px 'DejaVu Sans', 'Bitstream Vera Sans', 'Computer Modern Sans Serif', 'Lucida Grande', 'Verdana', 'Geneva', 'Lucid', 'Arial', 'Helvetica', 'Avant Garde', sans-serif; text-anchor: end" x="32.26" y="40.869292" transform="rotate(-0 32.26 40.869292)">52</text>
     </g>
    </g>
    <g id="text_11">
     <text style="font: 8px 'DejaVu Sans', 'Bitstream Vera Sans', 'Computer Modern Sans Serif', 'Lucida Grande', 'Verdana', 'Geneva', 'Lucid', 'Arial', 'Helvetica', 'Avant Garde', sans-serif; text-anchor: middle" x="16.41625" y="74.613545" transform="rotate(-90 16.41625 74.613545)">core SNR [dB]</text>
    </g>
   </g>
   <g id="line2d_10">
    <path d="M 48.21 35.440927 
L 49.882163 35.700558 
L 51.556241 35.80365 
L 53.232248 35.770015 
L 54.910197 35.618962 
L 56.5901 35.368778 
L 58.271971 35.03634 
L 59.955822 34.636877 
L 61.641667 34.183841 
L 63.329518 33.688874 
L 65.01939 33.161859 
L 66.711294 32.61102 
L 68.405246 32.043072 
L 70.101257 31.403752 
L 71.799341 30.56605 
L 73.499512 29.568794 
L 75.201784 28.470298 
L 76.906169 27.310408 
L 78.612682 26.123103 
L 80.321336 24.938348 
L 82.032144 23.781946 
L 83.745122 22.675571 
L 85.460281 21.636917 
L 87.177637 20.679951 
L 88.897204 19.815212 
L 90.618995 19.050158 
L 92.343024 18.389519 
L 94.069306 17.835661 
L 95.797854 17.388949 
L 97.528683 17.0481 
L 99.261808 16.810527 
L 100.997242 16.672686 
L 102.735001 16.630406 
L 104.475098 16.630305 
L 106.217547 16.611855 
L 107.962365 16.601231 
L 109.709565 16.604551 
L 111.459162 16.62654 
L 113.211171 16.6711 
L 114.965607 16.741368 
L 116.722484 16.839794 
L 118.481818 16.968214 
L 120.243624 17.127946 
L 122.007916 17.319877 
L 123.774711 17.544565 
L 125.544023 17.802343 
L 127.315867 18.093431 
L 129.090259 18.418044 
L 130.867215 18.776524 
L 132.64675 19.169463 
L 134.428879 19.597845 
L 136.213618 20.0632 
L 138.000984 20.553901 
L 139.790991 21.011375 
L 141.583656 21.52392 
L 143.378994 22.084007 
L 145.177022 22.687198 
L 146.977755 23.331383 
L 148.78121 24.016125 
L 150.587404 24.742093 
L 152.396351 25.510558 
L 154.20807 26.32294 
L 156.022576 27.180394 
L 157.839885 28.083444 
L 159.660015 29.031628 
L 161.482982 30.023195 
L 163.308803 31.054815 
L 165.137494 32.121338 
L 166.969074 33.215588 
L 168.803558 34.328214 
L 170.640963 35.447603 
L 172.481308 36.556688 
L 174.324609 37.611771 
L 176.170883 38.716551 
L 178.020148 39.917624 
L 179.872422 41.218956 
L 181.727721 42.62381 
L 183.586065 44.134412 
L 185.44747 45.751625 
L 187.311954 47.474614 
L 189.179535 49.300505 
L 191.050232 51.224045 
L 192.924062 53.237262 
L 194.801044 55.329131 
L 196.681195 57.48527 
L 198.564535 59.687666 
L 200.451082 61.914468 
L 202.340853 64.139874 
L 204.233869 66.334139 
L 206.130147 68.46376 
L 208.029707 70.489281 
L 209.932567 72.352768 
L 211.838747 74.019688 
L 213.748265 75.616228 
L 215.661141 77.194063 
L 217.577394 78.746889 
L 219.497044 80.266987 
L 221.42011 81.745102 
L 223.346611 83.170348 
L 225.276568 84.530178 
L 227.21 85.81042 
" clip-path="url(#p116b7389a6)" style="fill: none; stroke-dasharray: 5.55,2.4; stroke-dashoffset: 0; stroke: #1f77b4; stroke-width: 1.5"/>
   </g>
   <g id="line2d_11">
    <path d="M 48.21 63.360532 
L 49.882163 65.011722 
L 51.556241 66.609003 
L 53.232248 68.161497 
L 54.910197 69.677499 
L 56.5901 71.163996 
L 58.271971 72.626316 
L 59.955822 74.067898 
L 61.641667 75.490169 
L 63.329518 76.892512 
L 65.01939 78.272306 
L 66.711294 79.625031 
L 68.405246 80.944416 
L 70.101257 82.176446 
L 71.799341 83.260491 
L 73.499512 84.278222 
L 75.201784 85.284536 
L 76.906169 86.303954 
L 78.612682 87.35554 
L 80.321336 88.454817 
L 82.032144 89.613582 
L 83.745122 90.839869 
L 85.460281 92.138038 
L 87.177637 93.508941 
L 88.897204 94.950146 
L 90.618995 96.4562 
L 92.343024 98.018914 
L 94.069306 99.627663 
L 95.797854 101.269694 
L 97.528683 102.930442 
L 99.261808 104.593848 
L 100.997242 106.242695 
L 102.735001 107.85895 
L 104.475098 109.387645 
L 106.217547 110.834749 
L 107.962365 112.245893 
L 109.709565 113.621825 
L 111.459162 114.962009 
L 113.211171 116.265235 
L 114.965607 117.529666 
L 116.722484 118.752895 
L 118.481818 119.932011 
L 120.243624 121.063669 
L 122.007916 122.144182 
L 123.774711 123.1696 
L 125.544023 124.135817 
L 127.315867 125.038671 
L 129.090259 125.874054 
L 130.867215 126.638035 
L 132.64675 127.326989 
L 134.428879 127.93773 
L 136.213618 128.46767 
L 138.000984 129.063264 
L 139.790991 130.291458 
L 141.583656 131.242632 
L 143.378994 131.931677 
L 145.177022 132.377231 
L 146.977755 132.600783 
L 148.78121 132.625859 
L 150.587404 132.477307 
L 152.396351 132.18065 
L 154.20807 131.761508 
L 156.022576 131.245091 
L 157.839885 130.655742 
L 159.660015 130.016542 
L 161.482982 129.348968 
L 163.308803 128.6726 
L 165.137494 128.004892 
L 166.969074 127.360984 
L 168.803558 126.753596 
L 170.640963 126.192984 
L 172.481308 125.682567 
L 174.324609 125.116536 
L 176.170883 124.48013 
L 178.020148 123.823295 
L 179.872422 123.164549 
L 181.727721 122.521396 
L 183.586065 121.909997 
L 185.44747 121.344871 
L 187.311954 120.838598 
L 189.179535 120.401527 
L 191.050232 120.041501 
L 192.924062 119.763585 
L 194.801044 119.56981 
L 196.681195 119.458945 
L 198.564535 119.426307 
L 200.451082 119.463626 
L 202.340853 119.559002 
L 204.233869 119.696964 
L 206.130147 119.858693 
L 208.029707 120.019854 
L 209.932567 120.125581 
L 211.838747 120.099916 
L 213.748265 120.011336 
L 215.661141 119.909812 
L 217.577394 119.797732 
L 219.497044 119.675946 
L 221.42011 119.543655 
L 223.346611 119.398337 
L 225.276568 119.235724 
L 227.21 119.049853 
" clip-path="url(#p116b7389a6)" style="fill: none; stroke-dasharray: 5.55,2.4; stroke-dashoffset: 0; stroke: #ff7f0e; stroke-width: 1.5"/>
   </g>
   <g id="patch_3">
    <path d="M 39.26 138.427091 
L 39.26 10.8 
" style="fill: none; stroke: #000000; stroke-width: 0.8; stroke-linejoin: miter; stroke-linecap: square"/>
   </g>
   <g id="patch_4">
    <path d="M 236.16 138.427091 
L 236.16 10.8 
" style="fill: none; stroke: #000000; stroke-width: 0.8; stroke-linejoin: miter; stroke-linecap: square"/>
   </g>
   <g id="patch_5">
    <path d="M 39.26 138.427091 
L 236.16 138.427091 
" style="fill: none; stroke: #000000; stroke-width: 0.8; stroke-linejoin: miter; stroke-linecap: square"/>
   </g>
   <g id="patch_6">
    <path d="M 39.26 10.8 
L 236.16 10.8 
" style="fill: none; stroke: #000000; stroke-width: 0.8; stroke-linejoin: miter; stroke-linecap: square"/>
   </g>
   <g id="legend_1">
    <g id="patch_7">
     <path d="M 133.4175 40.685 
L 230.56 40.685 
Q 232.16 40.685 232.16 39.085 
L 232.16 16.4 
Q 232.16 14.8 230.56 14.8 
L 133.4175 14.8 
Q 131.8175 14.8 131.8175 16.4 
L 131.8175 39.085 
Q 131.8175 40.685 133.4175 40.685 
z
" style="fill: #ffffff; opacity: 0.8; stroke: #cccccc; stroke-linejoin: miter"/>
    </g>
    <g id="line2d_12">
     <path d="M 135.0175 21.27875 
L 143.0175 21.27875 
L 151.0175 21.27875 
" style="fill: none; stroke-dasharray: 5.55,2.4; stroke-dashoffset: 0; stroke: #1f77b4; stroke-width: 1.5"/>
    </g>
    <g id="text_12">
     <text style="font: 8px 'DejaVu Sans', 'Bitstream Vera Sans', 'Computer Modern Sans Serif', 'Lucida Grande', 'Verdana', 'Geneva', 'Lucid', 'Arial', 'Helvetica', 'Avant Garde', sans-serif; text-anchor: start" x="157.4175" y="24.07875" transform="rotate(-0 157.4175 24.07875)">reference</text>
    </g>
    <g id="line2d_13">
     <path d="M 135.0175 33.02125 
L 143.0175 33.02125 
L 151.0175 33.02125 
" style="fill: none; stroke-dasharray: 5.55,2.4; stroke-dashoffset: 0; stroke: #ff7f0e; stroke-width: 1.5"/>
    </g>
    <g id="text_13">
     <text style="font: 8px 'DejaVu Sans', 'Bitstream Vera Sans', 'Computer Modern Sans Serif', 'Lucida Grande', 'Verdana', 'Geneva', 'Lucid', 'Arial', 'Helvetica', 'Avant Garde', sans-serif; text-anchor: start" x="157.4175" y="35.82125" transform="rotate(-0 157.4175 35.82125)">distorted antenna</text>
    </g>
   </g>
  </g>
 </g>
 <defs>
  <clipPath id="p116b7389a6">
   <rect x="39.26" y="10.8" width="196.9" height="127.627091"/>
  </clipPath>
 </defs>
</svg>
